# xmcd
#
# Track frame offsets:
#	150
#	19011
#	36696
#	54499
#	74326
#	90101
#	107258
#	125970
#	146380
#	163180
#	179539
#	195906
#	213241
#	229869
#	246952
#	265392
#	282289
#	297051
#	314824
#	334085
#
# Disc length: 4708 seconds
#
# Revision: 1
# Processed by: cddbd v1.5.2PL0 Copyright (c) Steve Scherf et al.
# Submitted via: EasyCDDAExtractor 12.0.1.1
#
DISCID=2e126214
DTITLE=Various Artist - Slow Jamz - Summer R&B Anthems CD1
DYEAR=2005
DGENRE=R&B
TTITLE0=Mario - Let Me Love You
TTITLE1=Nelly Kelly - Dilemma
TTITLE2=Beyoncé - Me, Myself And I
TTITLE3=Jennifer Lopez - Baby I Love U!
TTITLE4=Alicia Keys - Fallin'
TTITLE5=Blu Cantrell Feat. Sean Paul - Breathe
TTITLE6=Kelly Rowland - Stole
TTITLE7=Jagged Edge - Walked Outta Heaven
TTITLE8=ATL - Make It Up With Love
TTITLE9=SWV - Right Here
TTITLE10=En Vogue - Hold On
TTITLE11=Another Level - Freak Me
TTITLE12=K-Ci and JoJo - All My Life
TTITLE13=Sparkle - Be Careful
TTITLE14=Dru Hill - These Are The Times
TTITLE15=Mica Paris - I Should've Known Better
TTITLE16=Next - Too Close
TTITLE17=Jill Scott - Gettin' In The Way
TTITLE18=Toni Braxton - Breathe Again
TTITLE19=R. Kelly - Bump 'N' Grind
EXTD=
EXTT0=
EXTT1=
EXTT2=
EXTT3=
EXTT4=
EXTT5=
EXTT6=
EXTT7=
EXTT8=
EXTT9=
EXTT10=
EXTT11=
EXTT12=
EXTT13=
EXTT14=
EXTT15=
EXTT16=
EXTT17=
EXTT18=
EXTT19=
PLAYORDER=
